<svg xmlns="http://www.w3.org/2000/svg" x="0px" y="0px"
width="48" height="48"
viewBox="0 0 172 172"
style=" fill:#000000;"><g fill="none" fill-rule="nonzero" stroke="none" stroke-width="1" stroke-linecap="butt" stroke-linejoin="miter" stroke-miterlimit="10" stroke-dasharray="" stroke-dashoffset="0" font-family="none" font-weight="none" font-size="none" text-anchor="none" style="mix-blend-mode: normal"><path d="M0,172v-172h172v172z" fill="#00252e"></path><g fill="#ffffff"><path d="M86,14.33333c-39.49552,0 -71.66667,32.17115 -71.66667,71.66667c0,39.49552 32.17115,71.66667 71.66667,71.66667c39.49552,0 71.66667,-32.17115 71.66667,-71.66667c0,-39.49552 -32.17115,-71.66667 -71.66667,-71.66667zM86,28.66667c31.74921,0 57.33333,25.58412 57.33333,57.33333c0,28.77035 -21.03186,52.40996 -48.59896,56.60547v-39.51465h16.6849l2.61751,-16.95085h-19.30241v-9.26628c0,-7.04483 2.29501,-13.29752 8.88834,-13.29752h10.58203v-14.79525c-1.86333,-0.25083 -5.7957,-0.79785 -13.22754,-0.79785c-15.523,0 -24.62142,8.19867 -24.62142,26.875v11.2819h-15.95703v16.95085h15.95703v39.37467c-27.11871,-4.57277 -47.68913,-28.01213 -47.68913,-56.46549c0,-31.74921 25.58412,-57.33333 57.33333,-57.33333z"></path></g></g></svg>

